<?xml version="1.0" standalone="no"?>
<!DOCTYPE svg PUBLIC "-//W3C//DTD SVG 20010904//EN"
 "http://www.w3.org/TR/2001/REC-SVG-20010904/DTD/svg10.dtd">
<svg version="1.0" xmlns="http://www.w3.org/2000/svg"
 width="466.000000pt" height="33.000000pt" viewBox="0 0 466.000000 33.000000"
 preserveAspectRatio="xMidYMid meet">
<metadata>
Created by potrace 1.16, written by Peter Selinger 2001-2019
</metadata>
<g transform="translate(0.000000,33.000000) scale(0.100000,-0.100000)"
fill="#000000" stroke="none">
<path d="M975 173 c-39 -11 -65 -35 -65 -61 l0 -25 348 7 c437 10 1355 7 1786
-4 335 -9 721 1 739 19 5 5 7 16 4 24 -4 11 -45 15 -189 20 -420 15 -692 18
-838 9 -145 -9 -1315 -1 -1635 12 -71 3 -139 2 -150 -1z"/>
</g>
</svg>
