<?xml version="1.0" encoding="UTF-8" standalone="no"?>
<svg
   xmlns:dc="http://purl.org/dc/elements/1.1/"
   xmlns:cc="http://creativecommons.org/ns#"
   xmlns:rdf="http://www.w3.org/1999/02/22-rdf-syntax-ns#"
   xmlns:svg="http://www.w3.org/2000/svg"
   xmlns="http://www.w3.org/2000/svg"
   id="svg8"
   version="1.1"
   viewBox="0 0 72.279905 4.2668786"
   height="4.2668786mm"
   width="72.279907mm">
  <defs
     id="defs2" />
  <metadata
     id="metadata5">
    <rdf:RDF>
      <cc:Work
         rdf:about="">
        <dc:format>image/svg+xml</dc:format>
        <dc:type
           rdf:resource="http://purl.org/dc/dcmitype/StillImage" />
        <dc:title></dc:title>
      </cc:Work>
    </rdf:RDF>
  </metadata>
  <g
     transform="translate(-66.89092,-160.163)"
     id="layer1">
    <path
       id="path851"
       d="m 124.24077,164.18888 c -7.24087,-0.5502 -27.585449,-1.20798 -45.761265,-1.47954 -12.211204,-0.18244 -15.834235,-0.56844 -5.700191,-0.6073 10.804585,-0.0414 37.999066,-0.84724 48.021876,-1.36688 4.66228,-0.24172 5.69899,-0.40185 6.65692,-0.55842 0.7381,-0.12064 2.4496,0.58606 3.26495,0.82308 1.09141,0.31727 3.20477,0.71549 4.69636,0.88492 1.49159,0.16942 3.75141,0.403 3.75141,0.51906 0,0.11606 -1.41218,0.21101 -1.86776,0.21101 -1.43782,0 -6.03424,0.81654 -7.56921,1.34465 -0.81119,0.27909 -1.78367,0.49012 -2.16107,0.46895 -0.3774,-0.0212 -1.87681,-0.12896 -3.33202,-0.23953 z"
       style="fill:#000000;stroke-width:0.264583" />
    <path
       id="path849"
       d="m 124.35416,166.26834 c -3.68349,-0.37122 -6.93069,-0.55663 -11.37708,-0.64962 -2.54661,-0.0532 -5.46365,-0.16165 -6.48229,-0.24087 -1.01865,-0.0792 -4.94771,-0.20304 -8.731251,-0.27515 -3.783541,-0.0721 -7.772135,-0.19072 -8.863541,-0.26357 -1.091407,-0.0729 -7.9375,-0.20378 -15.213541,-0.29096 -7.276042,-0.0872 -14.300729,-0.18791 -15.610417,-0.22383 -1.309687,-0.0359 -3.512343,-0.0881 -4.894791,-0.11589 -4.02758,-0.0811 -2.241566,-0.49016 2.910416,-0.66667 2.546615,-0.0872 10.047552,-0.21801 16.66875,-0.29058 6.621198,-0.0726 14.122135,-0.21466 16.668749,-0.31577 2.546615,-0.10111 4.716079,-0.1626 4.821031,-0.13665 0.104953,0.0259 3.79589,-0.0777 8.202085,-0.23044 4.40619,-0.1527 9.44001,-0.31828 11.18626,-0.36796 1.74625,-0.0497 4.60375,-0.19149 6.35,-0.31514 4.79274,-0.33937 7.2086,-0.26505 8.99583,0.27676 0.87313,0.2647 1.97144,0.51789 2.4407,0.56266 0.46925,0.0448 1.18363,0.15112 1.5875,0.23635 0.40386,0.0852 1.44868,0.2157 2.3218,0.28994 4.70711,0.40023 4.74742,0.80901 0.13229,1.34152 -0.3638,0.042 -1.37583,0.1657 -2.24896,0.27493 -0.87312,0.10924 -1.68617,0.17337 -1.80678,0.14252 -0.28353,-0.0725 -3.0683,0.72955 -3.72423,1.07267 -0.67943,0.35542 -1.30366,0.39022 -3.33253,0.18575 z"
       style="fill:none;stroke-width:0.264583" />
  </g>
</svg>
