<!DOCTYPE svg PUBLIC "-//W3C//DTD SVG 20010904//EN" "http://www.w3.org/TR/2001/REC-SVG-20010904/DTD/svg10.dtd">
<svg version="1.0" xmlns="http://www.w3.org/2000/svg" width="229px" height="224px" viewBox="0 0 2290 2240" preserveAspectRatio="xMidYMid meet">
<g id="layer101" fill="#f04d60" stroke="none">
 <path d="M478 2041 c-47 -15 -94 -49 -106 -76 -28 -61 -6 -136 56 -191 40 -35 148 -66 218 -62 l59 3 0 -455 0 -455 45 -22 c71 -35 361 -128 520 -167 130 -32 300 -63 448 -81 l52 -7 0 609 c0 567 -2 611 -19 648 -34 76 -129 125 -240 125 -136 -1 -210 -87 -163 -192 37 -84 124 -130 247 -132 l80 -1 3 -348 c2 -316 1 -348 -14 -354 -20 -7 -242 11 -394 33 -112 16 -320 63 -410 93 l-55 18 -5 436 -5 435 -30 44 c-55 77 -199 127 -287 99z m492 -1116 c150 -39 282 -70 369 -85 124 -22 255 -40 286 -40 46 0 56 -18 53 -92 l-3 -63 -65 3 c-139 6 -445 80 -685 165 l-120 43 -3 43 c-4 56 3 75 26 66 9 -3 73 -21 142 -40z"/>
 </g>
<g id="layer102" fill="#f15a62" stroke="none">
 <path d="M466 2036 c-21 -8 -43 -19 -48 -24 -5 -5 12 -54 42 -121 27 -62 50 -118 50 -125 0 -6 7 -20 16 -31 13 -17 27 -20 97 -20 l82 0 5 -210 5 -210 35 -75 c19 -41 37 -100 41 -130 4 -30 6 139 5 377 l-1 431 -30 44 c-59 83 -205 129 -299 94z"/>
 <path d="M384 1988 c-4 -7 -3 -8 4 -4 12 7 16 16 8 16 -3 0 -8 -5 -12 -12z"/>
 <path d="M1413 1891 c-130 -60 -96 -220 63 -287 24 -10 69 -17 119 -18 l80 -1 3 -348 c2 -316 1 -348 -14 -354 -20 -7 -242 11 -394 33 -110 16 -335 66 -383 85 -33 14 -40 9 -32 -23 6 -23 19 -28 128 -56 165 -43 279 -69 356 -82 126 -22 255 -40 286 -40 46 0 56 -18 53 -92 l-3 -63 -65 3 c-123 5 -452 81 -619 143 -29 11 -55 18 -57 16 -3 -2 4 -24 15 -48 11 -24 18 -46 16 -50 -6 -8 214 -73 374 -109 107 -25 378 -70 419 -70 9 0 12 128 12 608 0 682 2 658 -74 716 -74 56 -203 73 -283 37z"/>
 <path d="M445 1760 c3 -5 8 -10 11 -10 3 0 2 5 -1 10 -3 6 -8 10 -11 10 -3 0 -2 -4 1 -10z"/>
 <path d="M503 1733 c4 -3 10 -3 14 0 3 4 0 7 -7 7 -7 0 -10 -3 -7 -7z"/>
 <path d="M702 1050 c0 -19 2 -27 5 -17 2 9 2 25 0 35 -3 9 -5 1 -5 -18z"/>
 <path d="M823 1013 c4 -3 10 -3 14 0 3 4 0 7 -7 7 -7 0 -10 -3 -7 -7z"/>
 <path d="M873 733 c4 -3 10 -3 14 0 3 4 0 7 -7 7 -7 0 -10 -3 -7 -7z"/>
 </g>
<g id="layer103" fill="#f26d65" stroke="none">
 <path d="M523 2043 c15 -2 37 -2 50 0 12 2 0 4 -28 4 -27 0 -38 -2 -22 -4z"/>
 <path d="M613 2033 c4 -3 10 -3 14 0 3 4 0 7 -7 7 -7 0 -10 -3 -7 -7z"/>
 <path d="M640 2024 c0 -6 111 -266 136 -319 10 -21 15 -77 17 -185 2 -85 3 -36 3 110 -1 262 -1 265 -25 304 -28 45 -131 116 -131 90z"/>
 <path d="M1413 1891 c-130 -60 -96 -220 63 -287 24 -10 69 -17 119 -18 l80 -1 3 -348 c2 -320 1 -348 -15 -354 -32 -12 -477 38 -556 63 -19 6 -19 5 2 -17 11 -12 21 -28 21 -35 0 -6 26 -17 58 -24 153 -33 384 -70 437 -70 17 0 36 -5 43 -12 18 -18 16 -137 -2 -144 -21 -8 -208 21 -352 54 l-120 28 24 -43 c13 -23 21 -46 18 -51 -9 -15 436 -102 522 -102 9 0 12 128 12 608 0 682 2 658 -74 716 -74 56 -203 73 -283 37z"/>
 <path d="M633 1713 c4 -3 10 -3 14 0 3 4 0 7 -7 7 -7 0 -10 -3 -7 -7z"/>
 <path d="M998 963 c7 -3 16 -2 19 1 4 3 -2 6 -13 5 -11 0 -14 -3 -6 -6z"/>
 <path d="M1043 953 c4 -3 10 -3 14 0 3 4 0 7 -7 7 -7 0 -10 -3 -7 -7z"/>
 <path d="M1123 653 c4 -3 10 -3 14 0 3 4 0 7 -7 7 -7 0 -10 -3 -7 -7z"/>
 </g>
<g id="layer104" fill="#f68f6a" stroke="none">
 <path d="M1413 1891 c-130 -60 -96 -220 63 -287 24 -10 69 -17 119 -18 l80 -1 0 -350 0 -350 -76 0 c-69 1 -76 -1 -71 -17 2 -10 8 -21 13 -24 5 -3 6 3 2 13 -3 10 -3 15 2 11 4 -4 9 -18 10 -30 1 -13 3 -26 4 -30 0 -5 23 -8 49 -8 26 0 53 -5 60 -12 7 -7 12 -39 12 -75 0 -59 -2 -64 -25 -73 -14 -5 -25 -12 -25 -15 0 -4 5 -3 12 1 8 5 9 2 5 -10 -4 -9 -3 -15 2 -12 4 3 13 -6 20 -20 9 -20 9 -24 -1 -18 -7 4 -6 0 2 -9 8 -9 34 -19 58 -23 l42 -7 0 609 c0 684 2 660 -74 718 -74 56 -203 73 -283 37z"/>
 <path d="M1643 543 c4 -3 10 -3 14 0 3 4 0 7 -7 7 -7 0 -10 -3 -7 -7z"/>
 </g>

</svg>