<?xml version="1.0" encoding="UTF-8" standalone="no"?>
<svg
   xmlns:svg="http://www.w3.org/2000/svg"
   xmlns="http://www.w3.org/2000/svg"
   id="svg8"
   version="1.1"
   viewBox="0 0 72.279905 4.2668786">
  <g
     transform="translate(-66.89092,-160.163)"
     id="layer1">
    <path
       id="path851"
       d="m 81.82098,160.40399 c 7.24087,0.5502 27.58545,1.20798 45.76127,1.47954 12.2112,0.18244 15.83423,0.56844 5.70019,0.6073 -10.80459,0.0414 -37.99907,0.84724 -48.02188,1.36688 -4.66228,0.24172 -5.69899,0.40185 -6.65692,0.55842 -0.7381,0.12064 -2.4496,-0.58606 -3.26495,-0.82308 -1.09141,-0.31727 -3.20477,-0.71549 -4.69636,-0.88492 -1.49159,-0.16942 -3.75141,-0.403 -3.75141,-0.51906 0,-0.11606 1.41218,-0.21101 1.86776,-0.21101 1.43782,0 6.03424,-0.81654 7.56921,-1.34465 0.81119,-0.27909 1.78367,-0.49012 2.16107,-0.46895 0.3774,0.0212 1.87681,0.12896 3.33202,0.23953 z"
       style="fill:currentcolor" />
  </g>
</svg>
