<?xml version="1.0" encoding="UTF-8" standalone="no"?>
<svg
   xmlns="http://www.w3.org/2000/svg"
   id="svg8"
   version="1.1"
   viewBox="0 0 102.4386 3.4912834">
  <defs>
        <lineargradient id="right-bar-palette" x1="0%" y1="0%" x2="100%" y2="0%">
          <stop offset="0%" style="stop-color:#489b40;"></stop>
          <stop offset="100%" style="stop-color:#beff7f;"></stop>
        </lineargradient>
 </defs>
<g
   transform="translate(-45.605741,-147.23285)"fill="url(#right-bar-palette)"
   id="layer1">
    <path
       id="path867"
       d="m 108.34108,147.37282 c 2.40109,0.12419 12.10061,0.17863 21.55448,0.12098 19.36719,-0.11811 18.13301,-0.24545 18.13301,1.87094 0,0.67686 -0.13654,1.17371 -0.34448,1.2535 -0.18947,0.0727 -1.46802,0.0195 -2.84121,-0.11824 -1.73112,-0.17363 -3.21723,-0.15678 -4.8464,0.055 -1.43704,0.18677 -2.92834,0.22184 -3.83952,0.0903 -0.81941,-0.11831 -6.78812,-0.21961 -13.2638,-0.2251 -6.47676,-0.006 -14.80669,-0.17514 -18.51474,-0.37706 -5.748984,-0.31306 -7.812234,-0.31304 -14.022914,1.1e-4 -5.16602,0.26049 -12.12594,0.3382 -23.95089,0.26745 -9.16782,-0.0549 -16.96641,-0.13437 -17.33021,-0.1767 -3.11812,-0.36283 -3.71084,-0.48249 -3.39218,-0.68482 0.19221,-0.12205 1.12338,-0.15463 2.06926,-0.0724 1.25398,0.10901 1.6123,0.0733 1.32292,-0.13197 -0.21828,-0.15482 -0.93266,-0.28513 -1.5875,-0.28958 -0.65485,-0.004 -1.36922,-0.12382 -1.5875,-0.26526 -0.26113,-0.1692 0.8248,-0.20142 3.175,-0.0942 2.39595,0.10929 5.09622,0.0249 8.20208,-0.2563 3.33213,-0.30169 7.486,-0.41302 14.81667,-0.39711 5.93426,0.0129 11.40137,-0.10404 13.09687,-0.2801 3.85543,-0.40034 17.667704,-0.57299 23.151054,-0.28937 z"/>
  </g>
</svg>
